<?xml version="1.0" encoding="UTF-8" standalone="no"?><!DOCTYPE svg PUBLIC "-//W3C//DTD SVG 1.1//EN" "http://www.w3.org/Graphics/SVG/1.1/DTD/svg11.dtd"><svg width="100%" height="100%" viewBox="0 0 512 512" version="1.1" xmlns="http://www.w3.org/2000/svg" xmlns:xlink="http://www.w3.org/1999/xlink" xml:space="preserve" xmlns:serif="http://www.serif.com/" style="fill-rule:evenodd;clip-rule:evenodd;stroke-linejoin:round;stroke-miterlimit:2;"><rect x="0" y="0" width="512" height="512" style="fill-rule:nonzero;"/><path d="M320.153,5.482c3.366,0.324 10.371,1.898 14.066,2.563c6.448,5.78 13.296,15.195 18.489,22.249c33.985,46.162 55.296,104.938 48.47,162.73c-1.772,12.531 -3.729,26.196 -7.969,38.188c-9.817,27.767 -26.118,53.028 -41.995,77.453c15.079,-10.291 34.308,-28.401 45.559,-42.451c33.729,-42.123 49.355,-94.507 49.116,-148.098c-0.065,-14.368 -2.125,-27.723 -3.589,-41.851c2.37,2.105 8.33,7.911 9.444,10.722c1.523,3.847 2.248,16.083 2.426,20.888c1.313,35.306 -3.313,71.86 -16.578,104.791c-18.736,46.513 -44.935,78.178 -86.093,106.935c-11.796,8.242 -24.305,16.261 -37.219,22.645c-7.212,3.566 -14.662,6.846 -22.191,9.681c-5.204,1.959 -10.567,3.58 -15.682,5.758c28.171,1.552 53.254,-2.699 79.925,-12.302c55.785,-20.085 100.396,-62.817 128.344,-114.565c7.044,-13.043 11.948,-26.618 17.344,-40.265c0.91,3.292 2.085,17.695 1.11,20.615c-2.7,8.096 -8.036,18.62 -12.112,26.124c-21.355,39.31 -53.422,74.813 -92.205,97.602c-44.997,26.441 -96.779,37.152 -148.539,30.359c-12.947,-1.7 -24.751,-4.452 -37.35,-7.678c3.636,2.42 7.813,4.747 11.675,6.823c33.065,17.78 69.324,28.562 106.814,30.289c62.782,2.892 113.835,-22.314 159.247,-63.994c-1.4,5.224 -4.765,11.861 -6.868,16.911c-0.798,1.914 -8.6,7.619 -10.61,9.192c-40.026,31.327 -88.571,48.404 -139.569,46.664c-50.424,-1.721 -99.868,-19.892 -141.101,-48.654c-12.4,-8.667 -23.288,-19.324 -33.67,-30.207c9.121,24.176 28.19,48.449 47.135,65.536c45.409,40.956 105.05,60.986 165.818,60.818c12.022,-0.034 24.413,-2.211 36.594,-3.017c-13.183,11.116 -16.654,11.243 -33.664,11.609c-65.994,1.421 -128.645,-20.473 -177.29,-65.51c-43.865,-40.61 -63.459,-92.877 -65.502,-151.893c-3.831,10.806 -5.42,21.523 -6.81,32.773c-10.527,85.213 37.607,168.816 112.125,209.132c10.45,5.654 21.072,9.857 32.223,14.262l-13.463,0.068c-1.561,0.002 -7.288,0.15 -8.493,-0.315c-13.653,-5.271 -29.794,-15.121 -41.383,-23.409c-36.69,-27.811 -62.48,-61.38 -78.374,-104.857c-13.037,-35.664 -15.449,-70.664 -9.276,-108.111c3.991,-24.214 14.349,-47.887 26.582,-69.056c5.389,-9.325 11.973,-18.155 18.44,-26.779c-32.524,18.332 -59.027,49.598 -74.823,83.184c-3.352,7.129 -6.068,14.57 -8.616,22.018c-5.504,16.086 -9.213,32.461 -10.942,49.396c-3.791,37.128 2.043,80.543 18.575,114.27c-2.865,-2.452 -14.058,-12.904 -15.505,-15.915c-3.769,-7.84 -7.505,-23.828 -9.009,-32.411c-10.545,-60.143 1.035,-123.49 36.698,-173.618c33.538,-47.142 82.146,-74.301 138.503,-84.041c-93.125,-12.938 -172.551,39.876 -212.439,121.952c-6.886,14.168 -12.232,27.963 -17.115,42.903c-0.043,0.076 -0.086,0.152 -0.129,0.228c-0.486,-2.723 -2.785,-16.894 -2.325,-18.647c2.425,-9.246 10.17,-25.726 14.29,-33.655c27.71,-53.331 73.759,-97.746 132.066,-115.31c39.45,-11.883 81.682,-9.122 120.607,3.63c13.569,4.48 27.093,11.35 39.712,17.957c-48.717,-54.637 -133.615,-72.739 -203.215,-57.478c-10.003,2.193 -21.092,4.32 -30.657,8.017c-12.773,4.936 -25.375,11.708 -37.483,18.089c2.714,-3.069 11.547,-14.878 13.808,-16.426c13.555,-9.277 40.581,-16.149 55.451,-18.945c110.67,-20.807 215.525,27.651 253.528,137.615c0.126,-4.46 0.453,-9.471 0.151,-13.876c-6.338,-91.952 -83.405,-159.21 -168.247,-182.115c-11.653,-3.146 -21.607,-4.437 -33.215,-6.691c6.633,-1.29 17.409,-5.287 23.611,-4.286c3.317,0.535 6.464,1.552 9.699,2.411c6.015,1.597 11.926,3.203 17.843,5.147c48.049,15.793 92.649,45.161 122.49,86.409c3.947,5.456 7.422,11.228 10.851,17.018c2.814,4.749 5.621,9.516 8.03,14.487c10.855,22.395 17.126,47.97 17.679,72.848c0.213,9.641 -0.449,19.386 -1.334,28.979c-0.715,7.744 -1.549,15.478 -2.781,23.158c2.529,-5.032 5.231,-9.897 7.689,-14.982c8.94,-18.496 13.976,-36.634 15.662,-57.125c0.544,-7.349 1.304,-15.044 1.095,-22.397c-1.614,-56.764 -27.727,-111.197 -65.04,-153.187c-2.624,-2.953 -5.795,-5.669 -8.291,-8.705l-0.223,-0.274Z" style="fill:#fefcfb;fill-rule:nonzero;"/><path d="M239.947,214.246c4.218,-6.081 10.7,-5.954 14.994,-0.027l33.345,0.028c4.214,-5.872 10.682,-5.814 14.874,-0.004c0.906,2.546 1.101,4.354 0.429,6.957c-1.978,2.999 -3.622,4.07 -7.159,4.981c-0.41,3.621 -0.743,7.25 -1.066,10.88c-1.318,14.808 -2.945,29.595 -4.137,44.415c2.785,1.022 4.479,2.206 5.828,5.026c0.523,2.77 0.709,4.166 -0.284,6.959c-4.958,5.974 -9.855,5.76 -14.899,0.03l-33.553,-0.029c-4.27,6.457 -9.986,5.233 -14.577,0.055l-33.773,-0.043c-5.205,5.7 -9.659,6.162 -14.66,0.027c-1.154,-2.677 -1.111,-4.189 -0.527,-7.022c1.443,-2.947 4.122,-4.909 7.357,-5.377c0.259,-6.565 1.221,-13.85 1.837,-20.453c1.077,-11.557 2.326,-23.089 3.305,-34.659c-2.539,-1.123 -4.577,-2.234 -5.955,-4.75c-0.636,-2.775 -0.656,-4.313 0.346,-6.995c4.329,-6.258 10.53,-5.747 15.044,0.009l33.231,-0.008Z" style="fill:#fefcfb;fill-rule:nonzero;"/><path d="M288.286,214.247c4.214,-5.872 10.682,-5.814 14.874,-0.004c0.906,2.546 1.101,4.354 0.429,6.957c-1.978,2.999 -3.622,4.07 -7.159,4.981c-0.41,3.621 -0.743,7.25 -1.066,10.88c-1.318,14.808 -2.945,29.595 -4.137,44.415c2.785,1.022 4.479,2.206 5.828,5.026c0.523,2.77 0.709,4.166 -0.284,6.959c-4.958,5.974 -9.855,5.76 -14.899,0.03l-33.553,-0.029c1.257,-2.664 1.003,-4.154 0.595,-6.974c-1.444,-2.945 -2.896,-3.898 -5.766,-5.097c0.203,-6.087 1.189,-13.792 1.735,-19.942c1.032,-11.62 2.336,-23.262 3.169,-34.907c3.548,-1.135 5.365,-2.406 7.369,-5.466c0.668,-2.536 0.42,-4.46 -0.48,-6.857l33.345,0.028Z" style="fill:#fefcfb;fill-rule:nonzero;"/><path d="M288.286,214.247c4.214,-5.872 10.682,-5.814 14.874,-0.004c0.906,2.546 1.101,4.354 0.429,6.957c-1.978,2.999 -3.622,4.07 -7.159,4.981c-0.41,3.621 -0.743,7.25 -1.066,10.88c-1.318,14.808 -2.945,29.595 -4.137,44.415c2.785,1.022 4.479,2.206 5.828,5.026c0.523,2.77 0.709,4.166 -0.284,6.959c-4.958,5.974 -9.855,5.76 -14.899,0.03c-1.238,-2.305 -1.272,-4.528 -0.504,-6.974l0.183,-0.295c2.452,-4.018 2.97,-3.665 6.895,-5.251c0.607,-0.245 1.924,-17.356 2.073,-18.923l3.445,-36.102c-2.89,-0.963 -4.713,-2.027 -6.22,-4.703c-0.204,-2.678 -0.251,-4.424 0.542,-6.996Z" style="fill-rule:nonzero;"/><path d="M288.717,283.485c3.299,-0.274 6.2,2.169 6.493,5.466c0.29,3.263 -2.083,6.159 -5.339,6.516c-2.157,0.237 -4.274,-0.705 -5.542,-2.466c-1.267,-1.761 -1.49,-4.068 -0.582,-6.038c0.909,-1.97 2.808,-3.299 4.969,-3.478Z" style="fill:#fefcfb;fill-rule:nonzero;"/><path d="M294.967,212.088c1.663,-0.192 3.331,0.327 4.591,1.429c1.26,1.102 1.995,2.686 2.024,4.361c0.053,2.933 -2.048,5.465 -4.941,5.955c-2.127,0.359 -4.281,-0.463 -5.627,-2.148c-1.346,-1.685 -1.672,-3.969 -0.851,-5.963c0.822,-1.995 2.661,-3.386 4.804,-3.634Z" style="fill:#fefcfb;fill-rule:nonzero;"/><path d="M254.941,214.219l33.345,0.028c-0.793,2.572 -0.747,4.318 -0.542,6.996c-8.672,-0.149 -17.395,0.088 -26.071,-0.001c-2.066,-0.021 -4.2,0.067 -6.251,-0.166c0.667,-2.536 0.419,-4.46 -0.481,-6.857Z" style="fill:#b58fc8;fill-rule:nonzero;"/><path d="M248.915,286.489l32.453,0.028c-0.767,2.446 -0.733,4.668 0.504,6.974l-33.553,-0.029c1.257,-2.664 1.003,-4.155 0.595,-6.974Z" style="fill:#5ce1bc;fill-rule:nonzero;"/><path d="M191.673,214.246c4.328,-6.26 10.529,-5.748 15.043,0.008c0.51,2.18 0.793,4.647 0.225,6.849c-2.022,3.113 -3.412,4.193 -7.114,5.249c-0.977,11.541 -2.279,23.34 -3.403,34.898c-0.519,5.325 -1.186,15.325 -2.079,20.261c2.912,0.736 4.802,2.274 6.16,4.954c0.833,3.125 0.987,3.975 -0.535,7.009c-5.206,5.699 -9.66,6.162 -14.661,0.027c-1.154,-2.677 -1.111,-4.19 -0.526,-7.022c1.442,-2.947 4.122,-4.91 7.357,-5.377c0.258,-6.566 1.221,-13.85 1.836,-20.454c1.078,-11.556 2.327,-23.088 3.305,-34.658c-2.539,-1.123 -4.577,-2.234 -5.954,-4.75c-0.637,-2.775 -0.657,-4.313 0.346,-6.995Z" style="fill-rule:nonzero;"/><path d="M191.875,283.553c2.144,-0.256 4.261,0.663 5.538,2.405c1.277,1.742 1.517,4.037 0.629,6.006c-0.89,1.968 -2.77,3.306 -4.922,3.499c-3.26,0.293 -6.15,-2.086 -6.492,-5.341c-0.34,-3.255 1.996,-6.181 5.246,-6.569Z" style="fill:#fefcfb;fill-rule:nonzero;"/><path d="M197.61,212.263c2.083,-0.549 4.3,0.078 5.785,1.638c1.486,1.56 2.004,3.805 1.352,5.858c-0.651,2.053 -2.368,3.589 -4.481,4.008c-3.13,0.621 -6.186,-1.356 -6.904,-4.465c-0.717,-3.108 1.163,-6.225 4.248,-7.039Z" style="fill:#fefcfb;fill-rule:nonzero;"/><path d="M239.947,214.246c4.218,-6.081 10.7,-5.954 14.994,-0.027c0.9,2.396 1.148,4.32 0.481,6.857c-2.005,3.06 -3.821,4.331 -7.37,5.466c-0.832,11.645 -2.137,23.287 -3.169,34.906c-0.546,6.151 -1.531,13.856 -1.734,19.943c2.87,1.199 4.321,2.152 5.766,5.097c0.407,2.82 0.662,4.31 -0.595,6.974c-4.27,6.457 -9.987,5.233 -14.577,0.055c-1.302,-2.866 -0.969,-4.007 -0.368,-7.037c1.636,-3.168 3.8,-4.786 7.306,-5.352c0.131,-2.859 0.463,-5.793 0.689,-8.653c1.218,-15.463 3.374,-31.106 4.192,-46.578c-2.466,-0.952 -4.641,-2.127 -5.747,-4.649c-0.769,-2.676 -0.541,-4.426 0.132,-7.002Z" style="fill-rule:nonzero;"/><path d="M245.948,212.294c2.064,-0.552 4.266,0.048 5.766,1.572c1.499,1.523 2.064,3.734 1.48,5.79c-0.584,2.056 -2.227,3.64 -4.303,4.148c-3.164,0.773 -6.36,-1.144 -7.167,-4.299c-0.806,-3.155 1.077,-6.371 4.224,-7.212Z" style="fill:#fefcfb;fill-rule:nonzero;"/><path d="M240.377,283.585c2.119,-0.246 4.208,0.666 5.469,2.387c1.261,1.721 1.501,3.988 0.627,5.935c-0.873,1.947 -2.726,3.275 -4.85,3.477c-3.238,0.309 -6.121,-2.048 -6.462,-5.282c-0.342,-3.235 1.984,-6.142 5.215,-6.517Z" style="fill:#fefcfb;fill-rule:nonzero;"/><path d="M206.717,214.254l33.23,-0.008c-0.673,2.577 -0.901,4.327 -0.132,7.002c-8.732,-0.105 -17.483,0.041 -26.218,-0.016c-2.23,-0.014 -4.428,0.037 -6.656,-0.129c0.568,-2.202 0.285,-4.668 -0.225,-6.849Z" style="fill:#b58fc8;fill-rule:nonzero;"/><path d="M200.505,286.465c10.855,0.062 22.023,0.137 32.87,0.015c-0.601,3.029 -0.935,4.171 0.368,7.037l-33.773,-0.043c1.522,-3.034 1.368,-3.883 0.535,-7.009Z" style="fill:#5ce1bc;fill-rule:nonzero;"/><path d="M297.056,286.502l19.182,-0.035c3.168,-0.002 6.88,-0.379 9.987,0.212c0.743,0.142 1.434,0.461 1.957,1.017c0.679,0.723 0.884,1.643 0.782,2.612c-0.113,1.079 -0.625,2.017 -1.527,2.632c-1.666,1.135 -26.802,0.608 -30.666,0.522c0.993,-2.794 0.807,-4.19 0.284,-6.96Z" style="fill:#5ce1bc;fill-rule:nonzero;"/><path d="M303.16,214.243l14.993,-0.034c2.613,-0.005 5.44,-0.132 8.002,0.16c4.023,0.459 3.612,6.517 -0.235,6.752c-5.588,0.342 -11.399,-0.012 -17.01,0.095c-1.748,0.034 -3.593,0.028 -5.321,-0.016c0.673,-2.603 0.478,-4.411 -0.429,-6.957Z" style="fill:#b58fc8;fill-rule:nonzero;"/><path d="M191.327,221.24c-5.837,-0.186 -11.797,0.128 -17.647,0.029c-2.557,-0.056 -6.553,0.482 -6.949,-3.022c-0.599,-5.297 6.831,-4.049 10.325,-4.042l14.617,0.04c-1.003,2.682 -0.983,4.22 -0.346,6.995Z" style="fill:#b58fc8;fill-rule:nonzero;"/><path d="M185.309,293.501c-3.502,-0.033 -15.174,0.911 -17.546,-1.053c-0.747,-0.618 -1.117,-1.423 -1.138,-2.387c-0.021,-0.943 0.284,-1.789 0.982,-2.439c2.156,-2.006 13.885,-1.143 17.176,-1.143c-0.585,2.832 -0.628,4.345 0.526,7.022Z" style="fill:#5ce1bc;fill-rule:nonzero;"/></svg>